%TF.GenerationSoftware,KiCad,Pcbnew,(5.1.10)-1*%
%TF.CreationDate,2022-04-18T12:48:46-04:00*%
%TF.ProjectId,blinds 2.0 Panel,626c696e-6473-4203-922e-302050616e65,rev?*%
%TF.SameCoordinates,Original*%
%TF.FileFunction,Profile,NP*%
%FSLAX46Y46*%
G04 Gerber Fmt 4.6, Leading zero omitted, Abs format (unit mm)*
G04 Created by KiCad (PCBNEW (5.1.10)-1) date 2022-04-18 12:48:46*
%MOMM*%
%LPD*%
G01*
G04 APERTURE LIST*
%TA.AperFunction,Profile*%
%ADD10C,0.050000*%
%TD*%
G04 APERTURE END LIST*
D10*
X240792000Y-127127000D02*
X240791880Y-69125280D01*
X212791880Y-130625280D02*
X237291879Y-130625280D01*
X209291880Y-69125281D02*
G75*
G02*
X212791880Y-65625281I3500000J0D01*
G01*
X212791880Y-130625280D02*
G75*
G02*
X209291880Y-127125280I0J3500000D01*
G01*
X237291879Y-65625281D02*
X212791880Y-65625281D01*
X240791880Y-127125281D02*
G75*
G02*
X237291879Y-130625280I-3500000J1D01*
G01*
X237291879Y-65625281D02*
G75*
G02*
X240791880Y-69125280I1J-3500000D01*
G01*
X238666880Y-127125280D02*
G75*
G03*
X238666880Y-127125280I-1375000J0D01*
G01*
X215666880Y-69125281D02*
G75*
G03*
X215666880Y-69125281I-1375000J0D01*
G01*
X215666880Y-127125280D02*
G75*
G03*
X215666880Y-127125280I-1375000J0D01*
G01*
X238666880Y-69125281D02*
G75*
G03*
X238666880Y-69125281I-1375000J0D01*
G01*
X181295880Y-130625280D02*
X205795879Y-130625280D01*
X177795880Y-69125281D02*
G75*
G02*
X181295880Y-65625281I3500000J0D01*
G01*
X181295880Y-130625280D02*
G75*
G02*
X177795880Y-127125280I0J3500000D01*
G01*
X205795879Y-65625281D02*
X181295880Y-65625281D01*
X209295880Y-127125281D02*
G75*
G02*
X205795879Y-130625280I-3500000J1D01*
G01*
X205795879Y-65625281D02*
G75*
G02*
X209295880Y-69125280I1J-3500000D01*
G01*
X207170880Y-127125280D02*
G75*
G03*
X207170880Y-127125280I-1375000J0D01*
G01*
X184170880Y-69125281D02*
G75*
G03*
X184170880Y-69125281I-1375000J0D01*
G01*
X184170880Y-127125280D02*
G75*
G03*
X184170880Y-127125280I-1375000J0D01*
G01*
X207170880Y-69125281D02*
G75*
G03*
X207170880Y-69125281I-1375000J0D01*
G01*
X152674880Y-69125281D02*
G75*
G03*
X152674880Y-69125281I-1375000J0D01*
G01*
X175674880Y-69125281D02*
G75*
G03*
X175674880Y-69125281I-1375000J0D01*
G01*
X152674880Y-127125280D02*
G75*
G03*
X152674880Y-127125280I-1375000J0D01*
G01*
X175674880Y-127125280D02*
G75*
G03*
X175674880Y-127125280I-1375000J0D01*
G01*
X174299879Y-65625281D02*
G75*
G02*
X177799880Y-69125280I1J-3500000D01*
G01*
X177799880Y-127125281D02*
G75*
G02*
X174299879Y-130625280I-3500000J1D01*
G01*
X149799880Y-130625280D02*
X174299879Y-130625280D01*
X174299879Y-65625281D02*
X149799880Y-65625281D01*
X146299880Y-69125281D02*
G75*
G02*
X149799880Y-65625281I3500000J0D01*
G01*
X149799880Y-130625280D02*
G75*
G02*
X146299880Y-127125280I0J3500000D01*
G01*
X146299880Y-69125281D02*
X146299880Y-127125280D01*
M02*
