%TF.GenerationSoftware,KiCad,Pcbnew,(5.1.10)-1*%
%TF.CreationDate,2022-04-18T12:48:46-04:00*%
%TF.ProjectId,blinds 2.0 Panel,626c696e-6473-4203-922e-302050616e65,rev?*%
%TF.SameCoordinates,Original*%
%TF.FileFunction,Soldermask,Top*%
%TF.FilePolarity,Negative*%
%FSLAX46Y46*%
G04 Gerber Fmt 4.6, Leading zero omitted, Abs format (unit mm)*
G04 Created by KiCad (PCBNEW (5.1.10)-1) date 2022-04-18 12:48:46*
%MOMM*%
%LPD*%
G01*
G04 APERTURE LIST*
%ADD10C,1.700000*%
%ADD11O,1.700000X1.700000*%
%ADD12R,1.700000X1.700000*%
%ADD13R,1.500000X2.000000*%
%ADD14R,3.800000X2.000000*%
G04 APERTURE END LIST*
%TO.C,R2*%
G36*
G01*
X230199880Y-76260280D02*
X230199880Y-76810280D01*
G75*
G02*
X229999880Y-77010280I-200000J0D01*
G01*
X229599880Y-77010280D01*
G75*
G02*
X229399880Y-76810280I0J200000D01*
G01*
X229399880Y-76260280D01*
G75*
G02*
X229599880Y-76060280I200000J0D01*
G01*
X229999880Y-76060280D01*
G75*
G02*
X230199880Y-76260280I0J-200000D01*
G01*
G37*
G36*
G01*
X231849880Y-76260280D02*
X231849880Y-76810280D01*
G75*
G02*
X231649880Y-77010280I-200000J0D01*
G01*
X231249880Y-77010280D01*
G75*
G02*
X231049880Y-76810280I0J200000D01*
G01*
X231049880Y-76260280D01*
G75*
G02*
X231249880Y-76060280I200000J0D01*
G01*
X231649880Y-76060280D01*
G75*
G02*
X231849880Y-76260280I0J-200000D01*
G01*
G37*
%TD*%
D10*
%TO.C,U3*%
X231449880Y-104475280D03*
X228909880Y-104475280D03*
X226369880Y-104475280D03*
X223829880Y-104475280D03*
X221289880Y-104475280D03*
X218749880Y-104475280D03*
X216209880Y-104475280D03*
X213669880Y-104475280D03*
X213669880Y-117175280D03*
X216209880Y-117175280D03*
X218749880Y-117175280D03*
X221289880Y-117175280D03*
X223829880Y-117175280D03*
X226369880Y-117175280D03*
X228909880Y-117175280D03*
X231449880Y-117175280D03*
%TD*%
D11*
%TO.C,J7*%
X217479880Y-108285280D03*
X217479880Y-110825280D03*
X220019880Y-108285280D03*
X220019880Y-110825280D03*
X222559880Y-108285280D03*
D12*
X222559880Y-110825280D03*
%TD*%
%TO.C,R5*%
G36*
G01*
X225120880Y-109065280D02*
X224570880Y-109065280D01*
G75*
G02*
X224370880Y-108865280I0J200000D01*
G01*
X224370880Y-108465280D01*
G75*
G02*
X224570880Y-108265280I200000J0D01*
G01*
X225120880Y-108265280D01*
G75*
G02*
X225320880Y-108465280I0J-200000D01*
G01*
X225320880Y-108865280D01*
G75*
G02*
X225120880Y-109065280I-200000J0D01*
G01*
G37*
G36*
G01*
X225120880Y-107415280D02*
X224570880Y-107415280D01*
G75*
G02*
X224370880Y-107215280I0J200000D01*
G01*
X224370880Y-106815280D01*
G75*
G02*
X224570880Y-106615280I200000J0D01*
G01*
X225120880Y-106615280D01*
G75*
G02*
X225320880Y-106815280I0J-200000D01*
G01*
X225320880Y-107215280D01*
G75*
G02*
X225120880Y-107415280I-200000J0D01*
G01*
G37*
%TD*%
%TO.C,J4*%
X210875880Y-91775280D03*
D11*
X210875880Y-94315280D03*
X210875880Y-96855280D03*
X210875880Y-99395280D03*
%TD*%
%TO.C,R4*%
G36*
G01*
X231849880Y-91500280D02*
X231849880Y-92050280D01*
G75*
G02*
X231649880Y-92250280I-200000J0D01*
G01*
X231249880Y-92250280D01*
G75*
G02*
X231049880Y-92050280I0J200000D01*
G01*
X231049880Y-91500280D01*
G75*
G02*
X231249880Y-91300280I200000J0D01*
G01*
X231649880Y-91300280D01*
G75*
G02*
X231849880Y-91500280I0J-200000D01*
G01*
G37*
G36*
G01*
X230199880Y-91500280D02*
X230199880Y-92050280D01*
G75*
G02*
X229999880Y-92250280I-200000J0D01*
G01*
X229599880Y-92250280D01*
G75*
G02*
X229399880Y-92050280I0J200000D01*
G01*
X229399880Y-91500280D01*
G75*
G02*
X229599880Y-91300280I200000J0D01*
G01*
X229999880Y-91300280D01*
G75*
G02*
X230199880Y-91500280I0J-200000D01*
G01*
G37*
%TD*%
%TO.C,R1*%
G36*
G01*
X224549880Y-78585280D02*
X223999880Y-78585280D01*
G75*
G02*
X223799880Y-78385280I0J200000D01*
G01*
X223799880Y-77985280D01*
G75*
G02*
X223999880Y-77785280I200000J0D01*
G01*
X224549880Y-77785280D01*
G75*
G02*
X224749880Y-77985280I0J-200000D01*
G01*
X224749880Y-78385280D01*
G75*
G02*
X224549880Y-78585280I-200000J0D01*
G01*
G37*
G36*
G01*
X224549880Y-76935280D02*
X223999880Y-76935280D01*
G75*
G02*
X223799880Y-76735280I0J200000D01*
G01*
X223799880Y-76335280D01*
G75*
G02*
X223999880Y-76135280I200000J0D01*
G01*
X224549880Y-76135280D01*
G75*
G02*
X224749880Y-76335280I0J-200000D01*
G01*
X224749880Y-76735280D01*
G75*
G02*
X224549880Y-76935280I-200000J0D01*
G01*
G37*
%TD*%
D13*
%TO.C,U5*%
X219243880Y-126777280D03*
X223843880Y-126777280D03*
X221543880Y-126777280D03*
D14*
X221543880Y-120477280D03*
%TD*%
D12*
%TO.C,J6*%
X210875880Y-107015280D03*
D11*
X210875880Y-109555280D03*
X210875880Y-112095280D03*
X210875880Y-114635280D03*
%TD*%
%TO.C,R6*%
G36*
G01*
X230199880Y-106740280D02*
X230199880Y-107290280D01*
G75*
G02*
X229999880Y-107490280I-200000J0D01*
G01*
X229599880Y-107490280D01*
G75*
G02*
X229399880Y-107290280I0J200000D01*
G01*
X229399880Y-106740280D01*
G75*
G02*
X229599880Y-106540280I200000J0D01*
G01*
X229999880Y-106540280D01*
G75*
G02*
X230199880Y-106740280I0J-200000D01*
G01*
G37*
G36*
G01*
X231849880Y-106740280D02*
X231849880Y-107290280D01*
G75*
G02*
X231649880Y-107490280I-200000J0D01*
G01*
X231249880Y-107490280D01*
G75*
G02*
X231049880Y-107290280I0J200000D01*
G01*
X231049880Y-106740280D01*
G75*
G02*
X231249880Y-106540280I200000J0D01*
G01*
X231649880Y-106540280D01*
G75*
G02*
X231849880Y-106740280I0J-200000D01*
G01*
G37*
%TD*%
D10*
%TO.C,U2*%
X231449880Y-101935280D03*
X228909880Y-101935280D03*
X226369880Y-101935280D03*
X223829880Y-101935280D03*
X221289880Y-101935280D03*
X218749880Y-101935280D03*
X216209880Y-101935280D03*
X213669880Y-101935280D03*
X213669880Y-89235280D03*
X216209880Y-89235280D03*
X218749880Y-89235280D03*
X221289880Y-89235280D03*
X223829880Y-89235280D03*
X226369880Y-89235280D03*
X228909880Y-89235280D03*
X231449880Y-89235280D03*
%TD*%
%TO.C,R3*%
G36*
G01*
X225120880Y-92175280D02*
X224570880Y-92175280D01*
G75*
G02*
X224370880Y-91975280I0J200000D01*
G01*
X224370880Y-91575280D01*
G75*
G02*
X224570880Y-91375280I200000J0D01*
G01*
X225120880Y-91375280D01*
G75*
G02*
X225320880Y-91575280I0J-200000D01*
G01*
X225320880Y-91975280D01*
G75*
G02*
X225120880Y-92175280I-200000J0D01*
G01*
G37*
G36*
G01*
X225120880Y-93825280D02*
X224570880Y-93825280D01*
G75*
G02*
X224370880Y-93625280I0J200000D01*
G01*
X224370880Y-93225280D01*
G75*
G02*
X224570880Y-93025280I200000J0D01*
G01*
X225120880Y-93025280D01*
G75*
G02*
X225320880Y-93225280I0J-200000D01*
G01*
X225320880Y-93625280D01*
G75*
G02*
X225120880Y-93825280I-200000J0D01*
G01*
G37*
%TD*%
D14*
%TO.C,U6*%
X229163880Y-120527280D03*
D13*
X229163880Y-126827280D03*
X231463880Y-126827280D03*
X226863880Y-126827280D03*
%TD*%
D11*
%TO.C,J5*%
X217479880Y-93045280D03*
X217479880Y-95585280D03*
X220019880Y-93045280D03*
X220019880Y-95585280D03*
X222559880Y-93045280D03*
D12*
X222559880Y-95585280D03*
%TD*%
%TO.C,J1*%
X236021880Y-73995280D03*
D11*
X238561880Y-73995280D03*
X236021880Y-76535280D03*
X238561880Y-76535280D03*
X236021880Y-79075280D03*
X238561880Y-79075280D03*
X236021880Y-81615280D03*
X238561880Y-81615280D03*
X236021880Y-84155280D03*
X238561880Y-84155280D03*
X236021880Y-86695280D03*
X238561880Y-86695280D03*
X236021880Y-89235280D03*
X238561880Y-89235280D03*
X236021880Y-91775280D03*
X238561880Y-91775280D03*
X236021880Y-94315280D03*
X238561880Y-94315280D03*
X236021880Y-96855280D03*
X238561880Y-96855280D03*
X236021880Y-99395280D03*
X238561880Y-99395280D03*
X236021880Y-101935280D03*
X238561880Y-101935280D03*
X236021880Y-104475280D03*
X238561880Y-104475280D03*
X236021880Y-107015280D03*
X238561880Y-107015280D03*
X236021880Y-109555280D03*
X238561880Y-109555280D03*
X236021880Y-112095280D03*
X238561880Y-112095280D03*
X236021880Y-114635280D03*
X238561880Y-114635280D03*
X236021880Y-117175280D03*
X238561880Y-117175280D03*
X236021880Y-119715280D03*
X238561880Y-119715280D03*
X236021880Y-122255280D03*
X238561880Y-122255280D03*
%TD*%
%TO.C,J3*%
X216209880Y-76535280D03*
X216209880Y-79075280D03*
X218749880Y-76535280D03*
X218749880Y-79075280D03*
X221289880Y-76535280D03*
D12*
X221289880Y-79075280D03*
%TD*%
%TO.C,J2*%
X210875880Y-76535280D03*
D11*
X210875880Y-79075280D03*
X210875880Y-81615280D03*
X210875880Y-84155280D03*
%TD*%
%TO.C,C3*%
G36*
G01*
X228086880Y-81065280D02*
X228086880Y-82165280D01*
G75*
G02*
X227836880Y-82415280I-250000J0D01*
G01*
X224836880Y-82415280D01*
G75*
G02*
X224586880Y-82165280I0J250000D01*
G01*
X224586880Y-81065280D01*
G75*
G02*
X224836880Y-80815280I250000J0D01*
G01*
X227836880Y-80815280D01*
G75*
G02*
X228086880Y-81065280I0J-250000D01*
G01*
G37*
G36*
G01*
X233486880Y-81065280D02*
X233486880Y-82165280D01*
G75*
G02*
X233236880Y-82415280I-250000J0D01*
G01*
X230236880Y-82415280D01*
G75*
G02*
X229986880Y-82165280I0J250000D01*
G01*
X229986880Y-81065280D01*
G75*
G02*
X230236880Y-80815280I250000J0D01*
G01*
X233236880Y-80815280D01*
G75*
G02*
X233486880Y-81065280I0J-250000D01*
G01*
G37*
%TD*%
%TO.C,C8*%
G36*
G01*
X229639880Y-128863280D02*
X229639880Y-129363280D01*
G75*
G02*
X229414880Y-129588280I-225000J0D01*
G01*
X228964880Y-129588280D01*
G75*
G02*
X228739880Y-129363280I0J225000D01*
G01*
X228739880Y-128863280D01*
G75*
G02*
X228964880Y-128638280I225000J0D01*
G01*
X229414880Y-128638280D01*
G75*
G02*
X229639880Y-128863280I0J-225000D01*
G01*
G37*
G36*
G01*
X228089880Y-128863280D02*
X228089880Y-129363280D01*
G75*
G02*
X227864880Y-129588280I-225000J0D01*
G01*
X227414880Y-129588280D01*
G75*
G02*
X227189880Y-129363280I0J225000D01*
G01*
X227189880Y-128863280D01*
G75*
G02*
X227414880Y-128638280I225000J0D01*
G01*
X227864880Y-128638280D01*
G75*
G02*
X228089880Y-128863280I0J-225000D01*
G01*
G37*
%TD*%
%TO.C,C7*%
G36*
G01*
X225665880Y-129363280D02*
X225665880Y-128863280D01*
G75*
G02*
X225890880Y-128638280I225000J0D01*
G01*
X226340880Y-128638280D01*
G75*
G02*
X226565880Y-128863280I0J-225000D01*
G01*
X226565880Y-129363280D01*
G75*
G02*
X226340880Y-129588280I-225000J0D01*
G01*
X225890880Y-129588280D01*
G75*
G02*
X225665880Y-129363280I0J225000D01*
G01*
G37*
G36*
G01*
X224115880Y-129363280D02*
X224115880Y-128863280D01*
G75*
G02*
X224340880Y-128638280I225000J0D01*
G01*
X224790880Y-128638280D01*
G75*
G02*
X225015880Y-128863280I0J-225000D01*
G01*
X225015880Y-129363280D01*
G75*
G02*
X224790880Y-129588280I-225000J0D01*
G01*
X224340880Y-129588280D01*
G75*
G02*
X224115880Y-129363280I0J225000D01*
G01*
G37*
%TD*%
D10*
%TO.C,U1*%
X231449880Y-73995280D03*
X228909880Y-73995280D03*
X226369880Y-73995280D03*
X223829880Y-73995280D03*
X221289880Y-73995280D03*
X218749880Y-73995280D03*
X216209880Y-73995280D03*
X213669880Y-73995280D03*
X213669880Y-86695280D03*
X216209880Y-86695280D03*
X218749880Y-86695280D03*
X221289880Y-86695280D03*
X223829880Y-86695280D03*
X226369880Y-86695280D03*
X228909880Y-86695280D03*
X231449880Y-86695280D03*
%TD*%
%TO.C,C4*%
G36*
G01*
X233486880Y-96305280D02*
X233486880Y-97405280D01*
G75*
G02*
X233236880Y-97655280I-250000J0D01*
G01*
X230236880Y-97655280D01*
G75*
G02*
X229986880Y-97405280I0J250000D01*
G01*
X229986880Y-96305280D01*
G75*
G02*
X230236880Y-96055280I250000J0D01*
G01*
X233236880Y-96055280D01*
G75*
G02*
X233486880Y-96305280I0J-250000D01*
G01*
G37*
G36*
G01*
X228086880Y-96305280D02*
X228086880Y-97405280D01*
G75*
G02*
X227836880Y-97655280I-250000J0D01*
G01*
X224836880Y-97655280D01*
G75*
G02*
X224586880Y-97405280I0J250000D01*
G01*
X224586880Y-96305280D01*
G75*
G02*
X224836880Y-96055280I250000J0D01*
G01*
X227836880Y-96055280D01*
G75*
G02*
X228086880Y-96305280I0J-250000D01*
G01*
G37*
%TD*%
%TO.C,C1*%
G36*
G01*
X232523880Y-129363280D02*
X232523880Y-128863280D01*
G75*
G02*
X232748880Y-128638280I225000J0D01*
G01*
X233198880Y-128638280D01*
G75*
G02*
X233423880Y-128863280I0J-225000D01*
G01*
X233423880Y-129363280D01*
G75*
G02*
X233198880Y-129588280I-225000J0D01*
G01*
X232748880Y-129588280D01*
G75*
G02*
X232523880Y-129363280I0J225000D01*
G01*
G37*
G36*
G01*
X230973880Y-129363280D02*
X230973880Y-128863280D01*
G75*
G02*
X231198880Y-128638280I225000J0D01*
G01*
X231648880Y-128638280D01*
G75*
G02*
X231873880Y-128863280I0J-225000D01*
G01*
X231873880Y-129363280D01*
G75*
G02*
X231648880Y-129588280I-225000J0D01*
G01*
X231198880Y-129588280D01*
G75*
G02*
X230973880Y-129363280I0J225000D01*
G01*
G37*
%TD*%
%TO.C,C2*%
G36*
G01*
X221739880Y-128863280D02*
X221739880Y-129363280D01*
G75*
G02*
X221514880Y-129588280I-225000J0D01*
G01*
X221064880Y-129588280D01*
G75*
G02*
X220839880Y-129363280I0J225000D01*
G01*
X220839880Y-128863280D01*
G75*
G02*
X221064880Y-128638280I225000J0D01*
G01*
X221514880Y-128638280D01*
G75*
G02*
X221739880Y-128863280I0J-225000D01*
G01*
G37*
G36*
G01*
X220189880Y-128863280D02*
X220189880Y-129363280D01*
G75*
G02*
X219964880Y-129588280I-225000J0D01*
G01*
X219514880Y-129588280D01*
G75*
G02*
X219289880Y-129363280I0J225000D01*
G01*
X219289880Y-128863280D01*
G75*
G02*
X219514880Y-128638280I225000J0D01*
G01*
X219964880Y-128638280D01*
G75*
G02*
X220189880Y-128863280I0J-225000D01*
G01*
G37*
%TD*%
%TO.C,C5*%
G36*
G01*
X228086880Y-111545280D02*
X228086880Y-112645280D01*
G75*
G02*
X227836880Y-112895280I-250000J0D01*
G01*
X224836880Y-112895280D01*
G75*
G02*
X224586880Y-112645280I0J250000D01*
G01*
X224586880Y-111545280D01*
G75*
G02*
X224836880Y-111295280I250000J0D01*
G01*
X227836880Y-111295280D01*
G75*
G02*
X228086880Y-111545280I0J-250000D01*
G01*
G37*
G36*
G01*
X233486880Y-111545280D02*
X233486880Y-112645280D01*
G75*
G02*
X233236880Y-112895280I-250000J0D01*
G01*
X230236880Y-112895280D01*
G75*
G02*
X229986880Y-112645280I0J250000D01*
G01*
X229986880Y-111545280D01*
G75*
G02*
X230236880Y-111295280I250000J0D01*
G01*
X233236880Y-111295280D01*
G75*
G02*
X233486880Y-111545280I0J-250000D01*
G01*
G37*
%TD*%
%TO.C,R2*%
G36*
G01*
X198703880Y-76260280D02*
X198703880Y-76810280D01*
G75*
G02*
X198503880Y-77010280I-200000J0D01*
G01*
X198103880Y-77010280D01*
G75*
G02*
X197903880Y-76810280I0J200000D01*
G01*
X197903880Y-76260280D01*
G75*
G02*
X198103880Y-76060280I200000J0D01*
G01*
X198503880Y-76060280D01*
G75*
G02*
X198703880Y-76260280I0J-200000D01*
G01*
G37*
G36*
G01*
X200353880Y-76260280D02*
X200353880Y-76810280D01*
G75*
G02*
X200153880Y-77010280I-200000J0D01*
G01*
X199753880Y-77010280D01*
G75*
G02*
X199553880Y-76810280I0J200000D01*
G01*
X199553880Y-76260280D01*
G75*
G02*
X199753880Y-76060280I200000J0D01*
G01*
X200153880Y-76060280D01*
G75*
G02*
X200353880Y-76260280I0J-200000D01*
G01*
G37*
%TD*%
%TO.C,U3*%
X199953880Y-104475280D03*
X197413880Y-104475280D03*
X194873880Y-104475280D03*
X192333880Y-104475280D03*
X189793880Y-104475280D03*
X187253880Y-104475280D03*
X184713880Y-104475280D03*
X182173880Y-104475280D03*
X182173880Y-117175280D03*
X184713880Y-117175280D03*
X187253880Y-117175280D03*
X189793880Y-117175280D03*
X192333880Y-117175280D03*
X194873880Y-117175280D03*
X197413880Y-117175280D03*
X199953880Y-117175280D03*
%TD*%
D11*
%TO.C,J7*%
X185983880Y-108285280D03*
X185983880Y-110825280D03*
X188523880Y-108285280D03*
X188523880Y-110825280D03*
X191063880Y-108285280D03*
D12*
X191063880Y-110825280D03*
%TD*%
%TO.C,R5*%
G36*
G01*
X193624880Y-109065280D02*
X193074880Y-109065280D01*
G75*
G02*
X192874880Y-108865280I0J200000D01*
G01*
X192874880Y-108465280D01*
G75*
G02*
X193074880Y-108265280I200000J0D01*
G01*
X193624880Y-108265280D01*
G75*
G02*
X193824880Y-108465280I0J-200000D01*
G01*
X193824880Y-108865280D01*
G75*
G02*
X193624880Y-109065280I-200000J0D01*
G01*
G37*
G36*
G01*
X193624880Y-107415280D02*
X193074880Y-107415280D01*
G75*
G02*
X192874880Y-107215280I0J200000D01*
G01*
X192874880Y-106815280D01*
G75*
G02*
X193074880Y-106615280I200000J0D01*
G01*
X193624880Y-106615280D01*
G75*
G02*
X193824880Y-106815280I0J-200000D01*
G01*
X193824880Y-107215280D01*
G75*
G02*
X193624880Y-107415280I-200000J0D01*
G01*
G37*
%TD*%
%TO.C,J4*%
X179379880Y-91775280D03*
D11*
X179379880Y-94315280D03*
X179379880Y-96855280D03*
X179379880Y-99395280D03*
%TD*%
%TO.C,R4*%
G36*
G01*
X200353880Y-91500280D02*
X200353880Y-92050280D01*
G75*
G02*
X200153880Y-92250280I-200000J0D01*
G01*
X199753880Y-92250280D01*
G75*
G02*
X199553880Y-92050280I0J200000D01*
G01*
X199553880Y-91500280D01*
G75*
G02*
X199753880Y-91300280I200000J0D01*
G01*
X200153880Y-91300280D01*
G75*
G02*
X200353880Y-91500280I0J-200000D01*
G01*
G37*
G36*
G01*
X198703880Y-91500280D02*
X198703880Y-92050280D01*
G75*
G02*
X198503880Y-92250280I-200000J0D01*
G01*
X198103880Y-92250280D01*
G75*
G02*
X197903880Y-92050280I0J200000D01*
G01*
X197903880Y-91500280D01*
G75*
G02*
X198103880Y-91300280I200000J0D01*
G01*
X198503880Y-91300280D01*
G75*
G02*
X198703880Y-91500280I0J-200000D01*
G01*
G37*
%TD*%
%TO.C,R1*%
G36*
G01*
X193053880Y-78585280D02*
X192503880Y-78585280D01*
G75*
G02*
X192303880Y-78385280I0J200000D01*
G01*
X192303880Y-77985280D01*
G75*
G02*
X192503880Y-77785280I200000J0D01*
G01*
X193053880Y-77785280D01*
G75*
G02*
X193253880Y-77985280I0J-200000D01*
G01*
X193253880Y-78385280D01*
G75*
G02*
X193053880Y-78585280I-200000J0D01*
G01*
G37*
G36*
G01*
X193053880Y-76935280D02*
X192503880Y-76935280D01*
G75*
G02*
X192303880Y-76735280I0J200000D01*
G01*
X192303880Y-76335280D01*
G75*
G02*
X192503880Y-76135280I200000J0D01*
G01*
X193053880Y-76135280D01*
G75*
G02*
X193253880Y-76335280I0J-200000D01*
G01*
X193253880Y-76735280D01*
G75*
G02*
X193053880Y-76935280I-200000J0D01*
G01*
G37*
%TD*%
D13*
%TO.C,U5*%
X187747880Y-126777280D03*
X192347880Y-126777280D03*
X190047880Y-126777280D03*
D14*
X190047880Y-120477280D03*
%TD*%
D12*
%TO.C,J6*%
X179379880Y-107015280D03*
D11*
X179379880Y-109555280D03*
X179379880Y-112095280D03*
X179379880Y-114635280D03*
%TD*%
%TO.C,R6*%
G36*
G01*
X198703880Y-106740280D02*
X198703880Y-107290280D01*
G75*
G02*
X198503880Y-107490280I-200000J0D01*
G01*
X198103880Y-107490280D01*
G75*
G02*
X197903880Y-107290280I0J200000D01*
G01*
X197903880Y-106740280D01*
G75*
G02*
X198103880Y-106540280I200000J0D01*
G01*
X198503880Y-106540280D01*
G75*
G02*
X198703880Y-106740280I0J-200000D01*
G01*
G37*
G36*
G01*
X200353880Y-106740280D02*
X200353880Y-107290280D01*
G75*
G02*
X200153880Y-107490280I-200000J0D01*
G01*
X199753880Y-107490280D01*
G75*
G02*
X199553880Y-107290280I0J200000D01*
G01*
X199553880Y-106740280D01*
G75*
G02*
X199753880Y-106540280I200000J0D01*
G01*
X200153880Y-106540280D01*
G75*
G02*
X200353880Y-106740280I0J-200000D01*
G01*
G37*
%TD*%
D10*
%TO.C,U2*%
X199953880Y-101935280D03*
X197413880Y-101935280D03*
X194873880Y-101935280D03*
X192333880Y-101935280D03*
X189793880Y-101935280D03*
X187253880Y-101935280D03*
X184713880Y-101935280D03*
X182173880Y-101935280D03*
X182173880Y-89235280D03*
X184713880Y-89235280D03*
X187253880Y-89235280D03*
X189793880Y-89235280D03*
X192333880Y-89235280D03*
X194873880Y-89235280D03*
X197413880Y-89235280D03*
X199953880Y-89235280D03*
%TD*%
%TO.C,R3*%
G36*
G01*
X193624880Y-92175280D02*
X193074880Y-92175280D01*
G75*
G02*
X192874880Y-91975280I0J200000D01*
G01*
X192874880Y-91575280D01*
G75*
G02*
X193074880Y-91375280I200000J0D01*
G01*
X193624880Y-91375280D01*
G75*
G02*
X193824880Y-91575280I0J-200000D01*
G01*
X193824880Y-91975280D01*
G75*
G02*
X193624880Y-92175280I-200000J0D01*
G01*
G37*
G36*
G01*
X193624880Y-93825280D02*
X193074880Y-93825280D01*
G75*
G02*
X192874880Y-93625280I0J200000D01*
G01*
X192874880Y-93225280D01*
G75*
G02*
X193074880Y-93025280I200000J0D01*
G01*
X193624880Y-93025280D01*
G75*
G02*
X193824880Y-93225280I0J-200000D01*
G01*
X193824880Y-93625280D01*
G75*
G02*
X193624880Y-93825280I-200000J0D01*
G01*
G37*
%TD*%
D14*
%TO.C,U6*%
X197667880Y-120527280D03*
D13*
X197667880Y-126827280D03*
X199967880Y-126827280D03*
X195367880Y-126827280D03*
%TD*%
D11*
%TO.C,J5*%
X185983880Y-93045280D03*
X185983880Y-95585280D03*
X188523880Y-93045280D03*
X188523880Y-95585280D03*
X191063880Y-93045280D03*
D12*
X191063880Y-95585280D03*
%TD*%
%TO.C,J1*%
X204525880Y-73995280D03*
D11*
X207065880Y-73995280D03*
X204525880Y-76535280D03*
X207065880Y-76535280D03*
X204525880Y-79075280D03*
X207065880Y-79075280D03*
X204525880Y-81615280D03*
X207065880Y-81615280D03*
X204525880Y-84155280D03*
X207065880Y-84155280D03*
X204525880Y-86695280D03*
X207065880Y-86695280D03*
X204525880Y-89235280D03*
X207065880Y-89235280D03*
X204525880Y-91775280D03*
X207065880Y-91775280D03*
X204525880Y-94315280D03*
X207065880Y-94315280D03*
X204525880Y-96855280D03*
X207065880Y-96855280D03*
X204525880Y-99395280D03*
X207065880Y-99395280D03*
X204525880Y-101935280D03*
X207065880Y-101935280D03*
X204525880Y-104475280D03*
X207065880Y-104475280D03*
X204525880Y-107015280D03*
X207065880Y-107015280D03*
X204525880Y-109555280D03*
X207065880Y-109555280D03*
X204525880Y-112095280D03*
X207065880Y-112095280D03*
X204525880Y-114635280D03*
X207065880Y-114635280D03*
X204525880Y-117175280D03*
X207065880Y-117175280D03*
X204525880Y-119715280D03*
X207065880Y-119715280D03*
X204525880Y-122255280D03*
X207065880Y-122255280D03*
%TD*%
%TO.C,J3*%
X184713880Y-76535280D03*
X184713880Y-79075280D03*
X187253880Y-76535280D03*
X187253880Y-79075280D03*
X189793880Y-76535280D03*
D12*
X189793880Y-79075280D03*
%TD*%
%TO.C,J2*%
X179379880Y-76535280D03*
D11*
X179379880Y-79075280D03*
X179379880Y-81615280D03*
X179379880Y-84155280D03*
%TD*%
%TO.C,C3*%
G36*
G01*
X196590880Y-81065280D02*
X196590880Y-82165280D01*
G75*
G02*
X196340880Y-82415280I-250000J0D01*
G01*
X193340880Y-82415280D01*
G75*
G02*
X193090880Y-82165280I0J250000D01*
G01*
X193090880Y-81065280D01*
G75*
G02*
X193340880Y-80815280I250000J0D01*
G01*
X196340880Y-80815280D01*
G75*
G02*
X196590880Y-81065280I0J-250000D01*
G01*
G37*
G36*
G01*
X201990880Y-81065280D02*
X201990880Y-82165280D01*
G75*
G02*
X201740880Y-82415280I-250000J0D01*
G01*
X198740880Y-82415280D01*
G75*
G02*
X198490880Y-82165280I0J250000D01*
G01*
X198490880Y-81065280D01*
G75*
G02*
X198740880Y-80815280I250000J0D01*
G01*
X201740880Y-80815280D01*
G75*
G02*
X201990880Y-81065280I0J-250000D01*
G01*
G37*
%TD*%
%TO.C,C8*%
G36*
G01*
X198143880Y-128863280D02*
X198143880Y-129363280D01*
G75*
G02*
X197918880Y-129588280I-225000J0D01*
G01*
X197468880Y-129588280D01*
G75*
G02*
X197243880Y-129363280I0J225000D01*
G01*
X197243880Y-128863280D01*
G75*
G02*
X197468880Y-128638280I225000J0D01*
G01*
X197918880Y-128638280D01*
G75*
G02*
X198143880Y-128863280I0J-225000D01*
G01*
G37*
G36*
G01*
X196593880Y-128863280D02*
X196593880Y-129363280D01*
G75*
G02*
X196368880Y-129588280I-225000J0D01*
G01*
X195918880Y-129588280D01*
G75*
G02*
X195693880Y-129363280I0J225000D01*
G01*
X195693880Y-128863280D01*
G75*
G02*
X195918880Y-128638280I225000J0D01*
G01*
X196368880Y-128638280D01*
G75*
G02*
X196593880Y-128863280I0J-225000D01*
G01*
G37*
%TD*%
%TO.C,C7*%
G36*
G01*
X194169880Y-129363280D02*
X194169880Y-128863280D01*
G75*
G02*
X194394880Y-128638280I225000J0D01*
G01*
X194844880Y-128638280D01*
G75*
G02*
X195069880Y-128863280I0J-225000D01*
G01*
X195069880Y-129363280D01*
G75*
G02*
X194844880Y-129588280I-225000J0D01*
G01*
X194394880Y-129588280D01*
G75*
G02*
X194169880Y-129363280I0J225000D01*
G01*
G37*
G36*
G01*
X192619880Y-129363280D02*
X192619880Y-128863280D01*
G75*
G02*
X192844880Y-128638280I225000J0D01*
G01*
X193294880Y-128638280D01*
G75*
G02*
X193519880Y-128863280I0J-225000D01*
G01*
X193519880Y-129363280D01*
G75*
G02*
X193294880Y-129588280I-225000J0D01*
G01*
X192844880Y-129588280D01*
G75*
G02*
X192619880Y-129363280I0J225000D01*
G01*
G37*
%TD*%
D10*
%TO.C,U1*%
X199953880Y-73995280D03*
X197413880Y-73995280D03*
X194873880Y-73995280D03*
X192333880Y-73995280D03*
X189793880Y-73995280D03*
X187253880Y-73995280D03*
X184713880Y-73995280D03*
X182173880Y-73995280D03*
X182173880Y-86695280D03*
X184713880Y-86695280D03*
X187253880Y-86695280D03*
X189793880Y-86695280D03*
X192333880Y-86695280D03*
X194873880Y-86695280D03*
X197413880Y-86695280D03*
X199953880Y-86695280D03*
%TD*%
%TO.C,C4*%
G36*
G01*
X201990880Y-96305280D02*
X201990880Y-97405280D01*
G75*
G02*
X201740880Y-97655280I-250000J0D01*
G01*
X198740880Y-97655280D01*
G75*
G02*
X198490880Y-97405280I0J250000D01*
G01*
X198490880Y-96305280D01*
G75*
G02*
X198740880Y-96055280I250000J0D01*
G01*
X201740880Y-96055280D01*
G75*
G02*
X201990880Y-96305280I0J-250000D01*
G01*
G37*
G36*
G01*
X196590880Y-96305280D02*
X196590880Y-97405280D01*
G75*
G02*
X196340880Y-97655280I-250000J0D01*
G01*
X193340880Y-97655280D01*
G75*
G02*
X193090880Y-97405280I0J250000D01*
G01*
X193090880Y-96305280D01*
G75*
G02*
X193340880Y-96055280I250000J0D01*
G01*
X196340880Y-96055280D01*
G75*
G02*
X196590880Y-96305280I0J-250000D01*
G01*
G37*
%TD*%
%TO.C,C1*%
G36*
G01*
X201027880Y-129363280D02*
X201027880Y-128863280D01*
G75*
G02*
X201252880Y-128638280I225000J0D01*
G01*
X201702880Y-128638280D01*
G75*
G02*
X201927880Y-128863280I0J-225000D01*
G01*
X201927880Y-129363280D01*
G75*
G02*
X201702880Y-129588280I-225000J0D01*
G01*
X201252880Y-129588280D01*
G75*
G02*
X201027880Y-129363280I0J225000D01*
G01*
G37*
G36*
G01*
X199477880Y-129363280D02*
X199477880Y-128863280D01*
G75*
G02*
X199702880Y-128638280I225000J0D01*
G01*
X200152880Y-128638280D01*
G75*
G02*
X200377880Y-128863280I0J-225000D01*
G01*
X200377880Y-129363280D01*
G75*
G02*
X200152880Y-129588280I-225000J0D01*
G01*
X199702880Y-129588280D01*
G75*
G02*
X199477880Y-129363280I0J225000D01*
G01*
G37*
%TD*%
%TO.C,C2*%
G36*
G01*
X190243880Y-128863280D02*
X190243880Y-129363280D01*
G75*
G02*
X190018880Y-129588280I-225000J0D01*
G01*
X189568880Y-129588280D01*
G75*
G02*
X189343880Y-129363280I0J225000D01*
G01*
X189343880Y-128863280D01*
G75*
G02*
X189568880Y-128638280I225000J0D01*
G01*
X190018880Y-128638280D01*
G75*
G02*
X190243880Y-128863280I0J-225000D01*
G01*
G37*
G36*
G01*
X188693880Y-128863280D02*
X188693880Y-129363280D01*
G75*
G02*
X188468880Y-129588280I-225000J0D01*
G01*
X188018880Y-129588280D01*
G75*
G02*
X187793880Y-129363280I0J225000D01*
G01*
X187793880Y-128863280D01*
G75*
G02*
X188018880Y-128638280I225000J0D01*
G01*
X188468880Y-128638280D01*
G75*
G02*
X188693880Y-128863280I0J-225000D01*
G01*
G37*
%TD*%
%TO.C,C5*%
G36*
G01*
X196590880Y-111545280D02*
X196590880Y-112645280D01*
G75*
G02*
X196340880Y-112895280I-250000J0D01*
G01*
X193340880Y-112895280D01*
G75*
G02*
X193090880Y-112645280I0J250000D01*
G01*
X193090880Y-111545280D01*
G75*
G02*
X193340880Y-111295280I250000J0D01*
G01*
X196340880Y-111295280D01*
G75*
G02*
X196590880Y-111545280I0J-250000D01*
G01*
G37*
G36*
G01*
X201990880Y-111545280D02*
X201990880Y-112645280D01*
G75*
G02*
X201740880Y-112895280I-250000J0D01*
G01*
X198740880Y-112895280D01*
G75*
G02*
X198490880Y-112645280I0J250000D01*
G01*
X198490880Y-111545280D01*
G75*
G02*
X198740880Y-111295280I250000J0D01*
G01*
X201740880Y-111295280D01*
G75*
G02*
X201990880Y-111545280I0J-250000D01*
G01*
G37*
%TD*%
D11*
%TO.C,J1*%
X175569880Y-122255280D03*
X173029880Y-122255280D03*
X175569880Y-119715280D03*
X173029880Y-119715280D03*
X175569880Y-117175280D03*
X173029880Y-117175280D03*
X175569880Y-114635280D03*
X173029880Y-114635280D03*
X175569880Y-112095280D03*
X173029880Y-112095280D03*
X175569880Y-109555280D03*
X173029880Y-109555280D03*
X175569880Y-107015280D03*
X173029880Y-107015280D03*
X175569880Y-104475280D03*
X173029880Y-104475280D03*
X175569880Y-101935280D03*
X173029880Y-101935280D03*
X175569880Y-99395280D03*
X173029880Y-99395280D03*
X175569880Y-96855280D03*
X173029880Y-96855280D03*
X175569880Y-94315280D03*
X173029880Y-94315280D03*
X175569880Y-91775280D03*
X173029880Y-91775280D03*
X175569880Y-89235280D03*
X173029880Y-89235280D03*
X175569880Y-86695280D03*
X173029880Y-86695280D03*
X175569880Y-84155280D03*
X173029880Y-84155280D03*
X175569880Y-81615280D03*
X173029880Y-81615280D03*
X175569880Y-79075280D03*
X173029880Y-79075280D03*
X175569880Y-76535280D03*
X173029880Y-76535280D03*
X175569880Y-73995280D03*
D12*
X173029880Y-73995280D03*
%TD*%
D10*
%TO.C,U1*%
X168457880Y-86695280D03*
X165917880Y-86695280D03*
X163377880Y-86695280D03*
X160837880Y-86695280D03*
X158297880Y-86695280D03*
X155757880Y-86695280D03*
X153217880Y-86695280D03*
X150677880Y-86695280D03*
X150677880Y-73995280D03*
X153217880Y-73995280D03*
X155757880Y-73995280D03*
X158297880Y-73995280D03*
X160837880Y-73995280D03*
X163377880Y-73995280D03*
X165917880Y-73995280D03*
X168457880Y-73995280D03*
%TD*%
%TO.C,C1*%
G36*
G01*
X167981880Y-129363280D02*
X167981880Y-128863280D01*
G75*
G02*
X168206880Y-128638280I225000J0D01*
G01*
X168656880Y-128638280D01*
G75*
G02*
X168881880Y-128863280I0J-225000D01*
G01*
X168881880Y-129363280D01*
G75*
G02*
X168656880Y-129588280I-225000J0D01*
G01*
X168206880Y-129588280D01*
G75*
G02*
X167981880Y-129363280I0J225000D01*
G01*
G37*
G36*
G01*
X169531880Y-129363280D02*
X169531880Y-128863280D01*
G75*
G02*
X169756880Y-128638280I225000J0D01*
G01*
X170206880Y-128638280D01*
G75*
G02*
X170431880Y-128863280I0J-225000D01*
G01*
X170431880Y-129363280D01*
G75*
G02*
X170206880Y-129588280I-225000J0D01*
G01*
X169756880Y-129588280D01*
G75*
G02*
X169531880Y-129363280I0J225000D01*
G01*
G37*
%TD*%
%TO.C,C2*%
G36*
G01*
X157197880Y-128863280D02*
X157197880Y-129363280D01*
G75*
G02*
X156972880Y-129588280I-225000J0D01*
G01*
X156522880Y-129588280D01*
G75*
G02*
X156297880Y-129363280I0J225000D01*
G01*
X156297880Y-128863280D01*
G75*
G02*
X156522880Y-128638280I225000J0D01*
G01*
X156972880Y-128638280D01*
G75*
G02*
X157197880Y-128863280I0J-225000D01*
G01*
G37*
G36*
G01*
X158747880Y-128863280D02*
X158747880Y-129363280D01*
G75*
G02*
X158522880Y-129588280I-225000J0D01*
G01*
X158072880Y-129588280D01*
G75*
G02*
X157847880Y-129363280I0J225000D01*
G01*
X157847880Y-128863280D01*
G75*
G02*
X158072880Y-128638280I225000J0D01*
G01*
X158522880Y-128638280D01*
G75*
G02*
X158747880Y-128863280I0J-225000D01*
G01*
G37*
%TD*%
%TO.C,C3*%
G36*
G01*
X170494880Y-81065280D02*
X170494880Y-82165280D01*
G75*
G02*
X170244880Y-82415280I-250000J0D01*
G01*
X167244880Y-82415280D01*
G75*
G02*
X166994880Y-82165280I0J250000D01*
G01*
X166994880Y-81065280D01*
G75*
G02*
X167244880Y-80815280I250000J0D01*
G01*
X170244880Y-80815280D01*
G75*
G02*
X170494880Y-81065280I0J-250000D01*
G01*
G37*
G36*
G01*
X165094880Y-81065280D02*
X165094880Y-82165280D01*
G75*
G02*
X164844880Y-82415280I-250000J0D01*
G01*
X161844880Y-82415280D01*
G75*
G02*
X161594880Y-82165280I0J250000D01*
G01*
X161594880Y-81065280D01*
G75*
G02*
X161844880Y-80815280I250000J0D01*
G01*
X164844880Y-80815280D01*
G75*
G02*
X165094880Y-81065280I0J-250000D01*
G01*
G37*
%TD*%
%TO.C,C4*%
G36*
G01*
X165094880Y-96305280D02*
X165094880Y-97405280D01*
G75*
G02*
X164844880Y-97655280I-250000J0D01*
G01*
X161844880Y-97655280D01*
G75*
G02*
X161594880Y-97405280I0J250000D01*
G01*
X161594880Y-96305280D01*
G75*
G02*
X161844880Y-96055280I250000J0D01*
G01*
X164844880Y-96055280D01*
G75*
G02*
X165094880Y-96305280I0J-250000D01*
G01*
G37*
G36*
G01*
X170494880Y-96305280D02*
X170494880Y-97405280D01*
G75*
G02*
X170244880Y-97655280I-250000J0D01*
G01*
X167244880Y-97655280D01*
G75*
G02*
X166994880Y-97405280I0J250000D01*
G01*
X166994880Y-96305280D01*
G75*
G02*
X167244880Y-96055280I250000J0D01*
G01*
X170244880Y-96055280D01*
G75*
G02*
X170494880Y-96305280I0J-250000D01*
G01*
G37*
%TD*%
%TO.C,C5*%
G36*
G01*
X170494880Y-111545280D02*
X170494880Y-112645280D01*
G75*
G02*
X170244880Y-112895280I-250000J0D01*
G01*
X167244880Y-112895280D01*
G75*
G02*
X166994880Y-112645280I0J250000D01*
G01*
X166994880Y-111545280D01*
G75*
G02*
X167244880Y-111295280I250000J0D01*
G01*
X170244880Y-111295280D01*
G75*
G02*
X170494880Y-111545280I0J-250000D01*
G01*
G37*
G36*
G01*
X165094880Y-111545280D02*
X165094880Y-112645280D01*
G75*
G02*
X164844880Y-112895280I-250000J0D01*
G01*
X161844880Y-112895280D01*
G75*
G02*
X161594880Y-112645280I0J250000D01*
G01*
X161594880Y-111545280D01*
G75*
G02*
X161844880Y-111295280I250000J0D01*
G01*
X164844880Y-111295280D01*
G75*
G02*
X165094880Y-111545280I0J-250000D01*
G01*
G37*
%TD*%
%TO.C,C7*%
G36*
G01*
X161123880Y-129363280D02*
X161123880Y-128863280D01*
G75*
G02*
X161348880Y-128638280I225000J0D01*
G01*
X161798880Y-128638280D01*
G75*
G02*
X162023880Y-128863280I0J-225000D01*
G01*
X162023880Y-129363280D01*
G75*
G02*
X161798880Y-129588280I-225000J0D01*
G01*
X161348880Y-129588280D01*
G75*
G02*
X161123880Y-129363280I0J225000D01*
G01*
G37*
G36*
G01*
X162673880Y-129363280D02*
X162673880Y-128863280D01*
G75*
G02*
X162898880Y-128638280I225000J0D01*
G01*
X163348880Y-128638280D01*
G75*
G02*
X163573880Y-128863280I0J-225000D01*
G01*
X163573880Y-129363280D01*
G75*
G02*
X163348880Y-129588280I-225000J0D01*
G01*
X162898880Y-129588280D01*
G75*
G02*
X162673880Y-129363280I0J225000D01*
G01*
G37*
%TD*%
%TO.C,C8*%
G36*
G01*
X165097880Y-128863280D02*
X165097880Y-129363280D01*
G75*
G02*
X164872880Y-129588280I-225000J0D01*
G01*
X164422880Y-129588280D01*
G75*
G02*
X164197880Y-129363280I0J225000D01*
G01*
X164197880Y-128863280D01*
G75*
G02*
X164422880Y-128638280I225000J0D01*
G01*
X164872880Y-128638280D01*
G75*
G02*
X165097880Y-128863280I0J-225000D01*
G01*
G37*
G36*
G01*
X166647880Y-128863280D02*
X166647880Y-129363280D01*
G75*
G02*
X166422880Y-129588280I-225000J0D01*
G01*
X165972880Y-129588280D01*
G75*
G02*
X165747880Y-129363280I0J225000D01*
G01*
X165747880Y-128863280D01*
G75*
G02*
X165972880Y-128638280I225000J0D01*
G01*
X166422880Y-128638280D01*
G75*
G02*
X166647880Y-128863280I0J-225000D01*
G01*
G37*
%TD*%
D11*
%TO.C,J2*%
X147883880Y-84155280D03*
X147883880Y-81615280D03*
X147883880Y-79075280D03*
D12*
X147883880Y-76535280D03*
%TD*%
%TO.C,J3*%
X158297880Y-79075280D03*
D11*
X158297880Y-76535280D03*
X155757880Y-79075280D03*
X155757880Y-76535280D03*
X153217880Y-79075280D03*
X153217880Y-76535280D03*
%TD*%
%TO.C,J6*%
X147883880Y-114635280D03*
X147883880Y-112095280D03*
X147883880Y-109555280D03*
D12*
X147883880Y-107015280D03*
%TD*%
%TO.C,J7*%
X159567880Y-110825280D03*
D11*
X159567880Y-108285280D03*
X157027880Y-110825280D03*
X157027880Y-108285280D03*
X154487880Y-110825280D03*
X154487880Y-108285280D03*
%TD*%
D10*
%TO.C,U3*%
X168457880Y-117175280D03*
X165917880Y-117175280D03*
X163377880Y-117175280D03*
X160837880Y-117175280D03*
X158297880Y-117175280D03*
X155757880Y-117175280D03*
X153217880Y-117175280D03*
X150677880Y-117175280D03*
X150677880Y-104475280D03*
X153217880Y-104475280D03*
X155757880Y-104475280D03*
X158297880Y-104475280D03*
X160837880Y-104475280D03*
X163377880Y-104475280D03*
X165917880Y-104475280D03*
X168457880Y-104475280D03*
%TD*%
D14*
%TO.C,U5*%
X158551880Y-120477280D03*
D13*
X158551880Y-126777280D03*
X160851880Y-126777280D03*
X156251880Y-126777280D03*
%TD*%
%TO.C,U6*%
X163871880Y-126827280D03*
X168471880Y-126827280D03*
X166171880Y-126827280D03*
D14*
X166171880Y-120527280D03*
%TD*%
%TO.C,R5*%
G36*
G01*
X162128880Y-107415280D02*
X161578880Y-107415280D01*
G75*
G02*
X161378880Y-107215280I0J200000D01*
G01*
X161378880Y-106815280D01*
G75*
G02*
X161578880Y-106615280I200000J0D01*
G01*
X162128880Y-106615280D01*
G75*
G02*
X162328880Y-106815280I0J-200000D01*
G01*
X162328880Y-107215280D01*
G75*
G02*
X162128880Y-107415280I-200000J0D01*
G01*
G37*
G36*
G01*
X162128880Y-109065280D02*
X161578880Y-109065280D01*
G75*
G02*
X161378880Y-108865280I0J200000D01*
G01*
X161378880Y-108465280D01*
G75*
G02*
X161578880Y-108265280I200000J0D01*
G01*
X162128880Y-108265280D01*
G75*
G02*
X162328880Y-108465280I0J-200000D01*
G01*
X162328880Y-108865280D01*
G75*
G02*
X162128880Y-109065280I-200000J0D01*
G01*
G37*
%TD*%
%TO.C,R6*%
G36*
G01*
X168857880Y-106740280D02*
X168857880Y-107290280D01*
G75*
G02*
X168657880Y-107490280I-200000J0D01*
G01*
X168257880Y-107490280D01*
G75*
G02*
X168057880Y-107290280I0J200000D01*
G01*
X168057880Y-106740280D01*
G75*
G02*
X168257880Y-106540280I200000J0D01*
G01*
X168657880Y-106540280D01*
G75*
G02*
X168857880Y-106740280I0J-200000D01*
G01*
G37*
G36*
G01*
X167207880Y-106740280D02*
X167207880Y-107290280D01*
G75*
G02*
X167007880Y-107490280I-200000J0D01*
G01*
X166607880Y-107490280D01*
G75*
G02*
X166407880Y-107290280I0J200000D01*
G01*
X166407880Y-106740280D01*
G75*
G02*
X166607880Y-106540280I200000J0D01*
G01*
X167007880Y-106540280D01*
G75*
G02*
X167207880Y-106740280I0J-200000D01*
G01*
G37*
%TD*%
%TO.C,R1*%
G36*
G01*
X161557880Y-76935280D02*
X161007880Y-76935280D01*
G75*
G02*
X160807880Y-76735280I0J200000D01*
G01*
X160807880Y-76335280D01*
G75*
G02*
X161007880Y-76135280I200000J0D01*
G01*
X161557880Y-76135280D01*
G75*
G02*
X161757880Y-76335280I0J-200000D01*
G01*
X161757880Y-76735280D01*
G75*
G02*
X161557880Y-76935280I-200000J0D01*
G01*
G37*
G36*
G01*
X161557880Y-78585280D02*
X161007880Y-78585280D01*
G75*
G02*
X160807880Y-78385280I0J200000D01*
G01*
X160807880Y-77985280D01*
G75*
G02*
X161007880Y-77785280I200000J0D01*
G01*
X161557880Y-77785280D01*
G75*
G02*
X161757880Y-77985280I0J-200000D01*
G01*
X161757880Y-78385280D01*
G75*
G02*
X161557880Y-78585280I-200000J0D01*
G01*
G37*
%TD*%
%TO.C,R2*%
G36*
G01*
X168857880Y-76260280D02*
X168857880Y-76810280D01*
G75*
G02*
X168657880Y-77010280I-200000J0D01*
G01*
X168257880Y-77010280D01*
G75*
G02*
X168057880Y-76810280I0J200000D01*
G01*
X168057880Y-76260280D01*
G75*
G02*
X168257880Y-76060280I200000J0D01*
G01*
X168657880Y-76060280D01*
G75*
G02*
X168857880Y-76260280I0J-200000D01*
G01*
G37*
G36*
G01*
X167207880Y-76260280D02*
X167207880Y-76810280D01*
G75*
G02*
X167007880Y-77010280I-200000J0D01*
G01*
X166607880Y-77010280D01*
G75*
G02*
X166407880Y-76810280I0J200000D01*
G01*
X166407880Y-76260280D01*
G75*
G02*
X166607880Y-76060280I200000J0D01*
G01*
X167007880Y-76060280D01*
G75*
G02*
X167207880Y-76260280I0J-200000D01*
G01*
G37*
%TD*%
%TO.C,R3*%
G36*
G01*
X162128880Y-93825280D02*
X161578880Y-93825280D01*
G75*
G02*
X161378880Y-93625280I0J200000D01*
G01*
X161378880Y-93225280D01*
G75*
G02*
X161578880Y-93025280I200000J0D01*
G01*
X162128880Y-93025280D01*
G75*
G02*
X162328880Y-93225280I0J-200000D01*
G01*
X162328880Y-93625280D01*
G75*
G02*
X162128880Y-93825280I-200000J0D01*
G01*
G37*
G36*
G01*
X162128880Y-92175280D02*
X161578880Y-92175280D01*
G75*
G02*
X161378880Y-91975280I0J200000D01*
G01*
X161378880Y-91575280D01*
G75*
G02*
X161578880Y-91375280I200000J0D01*
G01*
X162128880Y-91375280D01*
G75*
G02*
X162328880Y-91575280I0J-200000D01*
G01*
X162328880Y-91975280D01*
G75*
G02*
X162128880Y-92175280I-200000J0D01*
G01*
G37*
%TD*%
%TO.C,R4*%
G36*
G01*
X167207880Y-91500280D02*
X167207880Y-92050280D01*
G75*
G02*
X167007880Y-92250280I-200000J0D01*
G01*
X166607880Y-92250280D01*
G75*
G02*
X166407880Y-92050280I0J200000D01*
G01*
X166407880Y-91500280D01*
G75*
G02*
X166607880Y-91300280I200000J0D01*
G01*
X167007880Y-91300280D01*
G75*
G02*
X167207880Y-91500280I0J-200000D01*
G01*
G37*
G36*
G01*
X168857880Y-91500280D02*
X168857880Y-92050280D01*
G75*
G02*
X168657880Y-92250280I-200000J0D01*
G01*
X168257880Y-92250280D01*
G75*
G02*
X168057880Y-92050280I0J200000D01*
G01*
X168057880Y-91500280D01*
G75*
G02*
X168257880Y-91300280I200000J0D01*
G01*
X168657880Y-91300280D01*
G75*
G02*
X168857880Y-91500280I0J-200000D01*
G01*
G37*
%TD*%
D11*
%TO.C,J4*%
X147883880Y-99395280D03*
X147883880Y-96855280D03*
X147883880Y-94315280D03*
D12*
X147883880Y-91775280D03*
%TD*%
%TO.C,J5*%
X159567880Y-95585280D03*
D11*
X159567880Y-93045280D03*
X157027880Y-95585280D03*
X157027880Y-93045280D03*
X154487880Y-95585280D03*
X154487880Y-93045280D03*
%TD*%
D10*
%TO.C,U2*%
X168457880Y-89235280D03*
X165917880Y-89235280D03*
X163377880Y-89235280D03*
X160837880Y-89235280D03*
X158297880Y-89235280D03*
X155757880Y-89235280D03*
X153217880Y-89235280D03*
X150677880Y-89235280D03*
X150677880Y-101935280D03*
X153217880Y-101935280D03*
X155757880Y-101935280D03*
X158297880Y-101935280D03*
X160837880Y-101935280D03*
X163377880Y-101935280D03*
X165917880Y-101935280D03*
X168457880Y-101935280D03*
%TD*%
M02*
