%TF.GenerationSoftware,KiCad,Pcbnew,(5.1.10)-1*%
%TF.CreationDate,2022-04-18T12:48:46-04:00*%
%TF.ProjectId,blinds 2.0 Panel,626c696e-6473-4203-922e-302050616e65,rev?*%
%TF.SameCoordinates,Original*%
%TF.FileFunction,Legend,Bot*%
%TF.FilePolarity,Positive*%
%FSLAX46Y46*%
G04 Gerber Fmt 4.6, Leading zero omitted, Abs format (unit mm)*
G04 Created by KiCad (PCBNEW (5.1.10)-1) date 2022-04-18 12:48:46*
%MOMM*%
%LPD*%
G01*
G04 APERTURE LIST*
%ADD10C,0.120000*%
%ADD11C,0.150000*%
G04 APERTURE END LIST*
D10*
X177800000Y-127254000D02*
X177800000Y-68580000D01*
X240792000Y-127254000D02*
X240792000Y-68580000D01*
X209296000Y-127254000D02*
X209296000Y-68580000D01*
%TO.C,J1*%
X239891880Y-72665280D02*
X237291880Y-72665280D01*
X239891880Y-72665280D02*
X239891880Y-123585280D01*
X239891880Y-123585280D02*
X234691880Y-123585280D01*
X234691880Y-75265280D02*
X234691880Y-123585280D01*
X237291880Y-75265280D02*
X234691880Y-75265280D01*
X237291880Y-72665280D02*
X237291880Y-75265280D01*
X234691880Y-72665280D02*
X234691880Y-73995280D01*
X236021880Y-72665280D02*
X234691880Y-72665280D01*
X208395880Y-72665280D02*
X205795880Y-72665280D01*
X208395880Y-72665280D02*
X208395880Y-123585280D01*
X208395880Y-123585280D02*
X203195880Y-123585280D01*
X203195880Y-75265280D02*
X203195880Y-123585280D01*
X205795880Y-75265280D02*
X203195880Y-75265280D01*
X205795880Y-72665280D02*
X205795880Y-75265280D01*
X203195880Y-72665280D02*
X203195880Y-73995280D01*
X204525880Y-72665280D02*
X203195880Y-72665280D01*
X176899880Y-72665280D02*
X174299880Y-72665280D01*
X176899880Y-72665280D02*
X176899880Y-123585280D01*
X176899880Y-123585280D02*
X171699880Y-123585280D01*
X171699880Y-75265280D02*
X171699880Y-123585280D01*
X174299880Y-75265280D02*
X171699880Y-75265280D01*
X174299880Y-72665280D02*
X174299880Y-75265280D01*
X171699880Y-72665280D02*
X171699880Y-73995280D01*
X173029880Y-72665280D02*
X171699880Y-72665280D01*
D11*
X237625213Y-71415660D02*
X237625213Y-72129946D01*
X237672832Y-72272803D01*
X237768070Y-72368041D01*
X237910927Y-72415660D01*
X238006165Y-72415660D01*
X236625213Y-72415660D02*
X237196641Y-72415660D01*
X236910927Y-72415660D02*
X236910927Y-71415660D01*
X237006165Y-71558518D01*
X237101403Y-71653756D01*
X237196641Y-71701375D01*
%TO.C,12V*%
X230290927Y-126403660D02*
X230862356Y-126403660D01*
X230576641Y-126403660D02*
X230576641Y-125403660D01*
X230671880Y-125546518D01*
X230767118Y-125641756D01*
X230862356Y-125689375D01*
X229909975Y-125498899D02*
X229862356Y-125451280D01*
X229767118Y-125403660D01*
X229529022Y-125403660D01*
X229433784Y-125451280D01*
X229386165Y-125498899D01*
X229338546Y-125594137D01*
X229338546Y-125689375D01*
X229386165Y-125832232D01*
X229957594Y-126403660D01*
X229338546Y-126403660D01*
X229052832Y-125403660D02*
X228719499Y-126403660D01*
X228386165Y-125403660D01*
%TO.C,GND*%
X222813784Y-125451280D02*
X222909022Y-125403660D01*
X223051880Y-125403660D01*
X223194737Y-125451280D01*
X223289975Y-125546518D01*
X223337594Y-125641756D01*
X223385213Y-125832232D01*
X223385213Y-125975089D01*
X223337594Y-126165565D01*
X223289975Y-126260803D01*
X223194737Y-126356041D01*
X223051880Y-126403660D01*
X222956641Y-126403660D01*
X222813784Y-126356041D01*
X222766165Y-126308422D01*
X222766165Y-125975089D01*
X222956641Y-125975089D01*
X222337594Y-126403660D02*
X222337594Y-125403660D01*
X221766165Y-126403660D01*
X221766165Y-125403660D01*
X221289975Y-126403660D02*
X221289975Y-125403660D01*
X221051880Y-125403660D01*
X220909022Y-125451280D01*
X220813784Y-125546518D01*
X220766165Y-125641756D01*
X220718546Y-125832232D01*
X220718546Y-125975089D01*
X220766165Y-126165565D01*
X220813784Y-126260803D01*
X220909022Y-126356041D01*
X221051880Y-126403660D01*
X221289975Y-126403660D01*
%TO.C,J1*%
X206129213Y-71415660D02*
X206129213Y-72129946D01*
X206176832Y-72272803D01*
X206272070Y-72368041D01*
X206414927Y-72415660D01*
X206510165Y-72415660D01*
X205129213Y-72415660D02*
X205700641Y-72415660D01*
X205414927Y-72415660D02*
X205414927Y-71415660D01*
X205510165Y-71558518D01*
X205605403Y-71653756D01*
X205700641Y-71701375D01*
%TO.C,12V*%
X198794927Y-126403660D02*
X199366356Y-126403660D01*
X199080641Y-126403660D02*
X199080641Y-125403660D01*
X199175880Y-125546518D01*
X199271118Y-125641756D01*
X199366356Y-125689375D01*
X198413975Y-125498899D02*
X198366356Y-125451280D01*
X198271118Y-125403660D01*
X198033022Y-125403660D01*
X197937784Y-125451280D01*
X197890165Y-125498899D01*
X197842546Y-125594137D01*
X197842546Y-125689375D01*
X197890165Y-125832232D01*
X198461594Y-126403660D01*
X197842546Y-126403660D01*
X197556832Y-125403660D02*
X197223499Y-126403660D01*
X196890165Y-125403660D01*
%TO.C,GND*%
X191317784Y-125451280D02*
X191413022Y-125403660D01*
X191555880Y-125403660D01*
X191698737Y-125451280D01*
X191793975Y-125546518D01*
X191841594Y-125641756D01*
X191889213Y-125832232D01*
X191889213Y-125975089D01*
X191841594Y-126165565D01*
X191793975Y-126260803D01*
X191698737Y-126356041D01*
X191555880Y-126403660D01*
X191460641Y-126403660D01*
X191317784Y-126356041D01*
X191270165Y-126308422D01*
X191270165Y-125975089D01*
X191460641Y-125975089D01*
X190841594Y-126403660D02*
X190841594Y-125403660D01*
X190270165Y-126403660D01*
X190270165Y-125403660D01*
X189793975Y-126403660D02*
X189793975Y-125403660D01*
X189555880Y-125403660D01*
X189413022Y-125451280D01*
X189317784Y-125546518D01*
X189270165Y-125641756D01*
X189222546Y-125832232D01*
X189222546Y-125975089D01*
X189270165Y-126165565D01*
X189317784Y-126260803D01*
X189413022Y-126356041D01*
X189555880Y-126403660D01*
X189793975Y-126403660D01*
X159821784Y-125451280D02*
X159917022Y-125403660D01*
X160059880Y-125403660D01*
X160202737Y-125451280D01*
X160297975Y-125546518D01*
X160345594Y-125641756D01*
X160393213Y-125832232D01*
X160393213Y-125975089D01*
X160345594Y-126165565D01*
X160297975Y-126260803D01*
X160202737Y-126356041D01*
X160059880Y-126403660D01*
X159964641Y-126403660D01*
X159821784Y-126356041D01*
X159774165Y-126308422D01*
X159774165Y-125975089D01*
X159964641Y-125975089D01*
X159345594Y-126403660D02*
X159345594Y-125403660D01*
X158774165Y-126403660D01*
X158774165Y-125403660D01*
X158297975Y-126403660D02*
X158297975Y-125403660D01*
X158059880Y-125403660D01*
X157917022Y-125451280D01*
X157821784Y-125546518D01*
X157774165Y-125641756D01*
X157726546Y-125832232D01*
X157726546Y-125975089D01*
X157774165Y-126165565D01*
X157821784Y-126260803D01*
X157917022Y-126356041D01*
X158059880Y-126403660D01*
X158297975Y-126403660D01*
%TO.C,12V*%
X167298927Y-126403660D02*
X167870356Y-126403660D01*
X167584641Y-126403660D02*
X167584641Y-125403660D01*
X167679880Y-125546518D01*
X167775118Y-125641756D01*
X167870356Y-125689375D01*
X166917975Y-125498899D02*
X166870356Y-125451280D01*
X166775118Y-125403660D01*
X166537022Y-125403660D01*
X166441784Y-125451280D01*
X166394165Y-125498899D01*
X166346546Y-125594137D01*
X166346546Y-125689375D01*
X166394165Y-125832232D01*
X166965594Y-126403660D01*
X166346546Y-126403660D01*
X166060832Y-125403660D02*
X165727499Y-126403660D01*
X165394165Y-125403660D01*
%TO.C,J1*%
X174633213Y-71415660D02*
X174633213Y-72129946D01*
X174680832Y-72272803D01*
X174776070Y-72368041D01*
X174918927Y-72415660D01*
X175014165Y-72415660D01*
X173633213Y-72415660D02*
X174204641Y-72415660D01*
X173918927Y-72415660D02*
X173918927Y-71415660D01*
X174014165Y-71558518D01*
X174109403Y-71653756D01*
X174204641Y-71701375D01*
%TD*%
M02*
