M48
; DRILL file {KiCad (5.1.10)-1} date 04/18/22 12:48:48
; FORMAT={-:-/ absolute / inch / decimal}
; #@! TF.CreationDate,2022-04-18T12:48:48-04:00
; #@! TF.GenerationSoftware,Kicad,Pcbnew,(5.1.10)-1
; #@! TF.FileFunction,Plated,1,2,PTH
FMAT,2
INCH
T1C0.0118
T2C0.0394
%
G90
G05
T1
X5.8022Y-4.1132
X5.8072Y-4.0182
X5.8172Y-2.9182
X5.8172Y-3.4182
X5.8172Y-3.5132
X5.8422Y-2.8182
X5.8972Y-3.0282
X5.9222Y-3.6632
X5.9522Y-3.0832
X5.9772Y-3.7182
X6.0222Y-3.7682
X6.0372Y-2.7932
X6.0922Y-3.1882
X6.1822Y-2.7882
X6.1872Y-3.1882
X6.2472Y-3.1882
X6.2722Y-2.7882
X6.2972Y-3.8282
X6.3122Y-4.4282
X6.3672Y-4.7382
X6.4072Y-2.8132
X6.4372Y-4.8882
X6.4372Y-4.9082
X6.4522Y-5.0832
X6.4572Y-4.8882
X6.4572Y-4.9082
X6.4772Y-4.8882
X6.4772Y-4.9082
X6.4972Y-4.8882
X6.4972Y-4.9082
X6.5022Y-4.3082
X6.5172Y-4.8882
X6.5172Y-4.9082
X6.5372Y-4.8882
X6.5372Y-4.9082
X6.5422Y-3.7032
X6.5572Y-2.8182
X6.5572Y-4.8882
X6.5572Y-4.9082
X6.6422Y-3.6982
X6.6472Y-4.3182
X6.6772Y-4.1482
X6.7622Y-4.1532
X7.0422Y-4.1132
X7.0472Y-4.0182
X7.0572Y-2.9182
X7.0572Y-3.4182
X7.0572Y-3.5132
X7.0822Y-2.8182
X7.1372Y-3.0282
X7.1622Y-3.6632
X7.1922Y-3.0832
X7.2172Y-3.7182
X7.2622Y-3.7682
X7.2772Y-2.7932
X7.3322Y-3.1882
X7.4222Y-2.7882
X7.4272Y-3.1882
X7.4872Y-3.1882
X7.5122Y-2.7882
X7.5372Y-3.8282
X7.5522Y-4.4282
X7.6072Y-4.7382
X7.6472Y-2.8132
X7.6772Y-4.8882
X7.6772Y-4.9082
X7.6922Y-5.0832
X7.6972Y-4.8882
X7.6972Y-4.9082
X7.7172Y-4.8882
X7.7172Y-4.9082
X7.7372Y-4.8882
X7.7372Y-4.9082
X7.7422Y-4.3082
X7.7572Y-4.8882
X7.7572Y-4.9082
X7.7772Y-4.8882
X7.7772Y-4.9082
X7.7822Y-3.7032
X7.7972Y-2.8182
X7.7972Y-4.8882
X7.7972Y-4.9082
X7.8822Y-3.6982
X7.8872Y-4.3182
X7.9172Y-4.1482
X8.0022Y-4.1532
X8.2822Y-4.1132
X8.2872Y-4.0182
X8.2972Y-2.9182
X8.2972Y-3.4182
X8.2972Y-3.5132
X8.3222Y-2.8182
X8.3772Y-3.0282
X8.4022Y-3.6632
X8.4322Y-3.0832
X8.4572Y-3.7182
X8.5022Y-3.7682
X8.5172Y-2.7932
X8.5722Y-3.1882
X8.6622Y-2.7882
X8.6672Y-3.1882
X8.7272Y-3.1882
X8.7522Y-2.7882
X8.7772Y-3.8282
X8.7922Y-4.4282
X8.8472Y-4.7382
X8.8872Y-2.8132
X8.9172Y-4.8882
X8.9172Y-4.9082
X8.9322Y-5.0832
X8.9372Y-4.8882
X8.9372Y-4.9082
X8.9572Y-4.8882
X8.9572Y-4.9082
X8.9772Y-4.8882
X8.9772Y-4.9082
X8.9822Y-4.3082
X8.9972Y-4.8882
X8.9972Y-4.9082
X9.0172Y-4.8882
X9.0172Y-4.9082
X9.0222Y-3.7032
X9.0372Y-2.8182
X9.0372Y-4.8882
X9.0372Y-4.9082
X9.1222Y-3.6982
X9.1272Y-4.3182
X9.1572Y-4.1482
X9.2422Y-4.1532
T2
X5.8222Y-3.0132
X5.8222Y-3.1132
X5.8222Y-3.2132
X5.8222Y-3.3132
X5.8222Y-3.6132
X5.8222Y-3.7132
X5.8222Y-3.8132
X5.8222Y-3.9132
X5.8222Y-4.2132
X5.8222Y-4.3132
X5.8222Y-4.4132
X5.8222Y-4.5132
X5.9322Y-2.9132
X5.9322Y-3.4132
X5.9322Y-3.5132
X5.9322Y-4.0132
X5.9322Y-4.1132
X5.9322Y-4.6132
X6.0322Y-2.9132
X6.0322Y-3.0132
X6.0322Y-3.1132
X6.0322Y-3.4132
X6.0322Y-3.5132
X6.0322Y-4.0132
X6.0322Y-4.1132
X6.0322Y-4.6132
X6.0822Y-3.6632
X6.0822Y-3.7632
X6.0822Y-4.2632
X6.0822Y-4.3632
X6.1322Y-2.9132
X6.1322Y-3.0132
X6.1322Y-3.1132
X6.1322Y-3.4132
X6.1322Y-3.5132
X6.1322Y-4.0132
X6.1322Y-4.1132
X6.1322Y-4.6132
X6.1822Y-3.6632
X6.1822Y-3.7632
X6.1822Y-4.2632
X6.1822Y-4.3632
X6.2322Y-2.9132
X6.2322Y-3.0132
X6.2322Y-3.1132
X6.2322Y-3.4132
X6.2322Y-3.5132
X6.2322Y-4.0132
X6.2322Y-4.1132
X6.2322Y-4.6132
X6.2822Y-3.6632
X6.2822Y-3.7632
X6.2822Y-4.2632
X6.2822Y-4.3632
X6.3322Y-2.9132
X6.3322Y-3.4132
X6.3322Y-3.5132
X6.3322Y-4.0132
X6.3322Y-4.1132
X6.3322Y-4.6132
X6.4322Y-2.9132
X6.4322Y-3.4132
X6.4322Y-3.5132
X6.4322Y-4.0132
X6.4322Y-4.1132
X6.4322Y-4.6132
X6.5322Y-2.9132
X6.5322Y-3.4132
X6.5322Y-3.5132
X6.5322Y-4.0132
X6.5322Y-4.1132
X6.5322Y-4.6132
X6.6322Y-2.9132
X6.6322Y-3.4132
X6.6322Y-3.5132
X6.6322Y-4.0132
X6.6322Y-4.1132
X6.6322Y-4.6132
X6.8122Y-2.9132
X6.8122Y-3.0132
X6.8122Y-3.1132
X6.8122Y-3.2132
X6.8122Y-3.3132
X6.8122Y-3.4132
X6.8122Y-3.5132
X6.8122Y-3.6132
X6.8122Y-3.7132
X6.8122Y-3.8132
X6.8122Y-3.9132
X6.8122Y-4.0132
X6.8122Y-4.1132
X6.8122Y-4.2132
X6.8122Y-4.3132
X6.8122Y-4.4132
X6.8122Y-4.5132
X6.8122Y-4.6132
X6.8122Y-4.7132
X6.8122Y-4.8132
X6.9122Y-2.9132
X6.9122Y-3.0132
X6.9122Y-3.1132
X6.9122Y-3.2132
X6.9122Y-3.3132
X6.9122Y-3.4132
X6.9122Y-3.5132
X6.9122Y-3.6132
X6.9122Y-3.7132
X6.9122Y-3.8132
X6.9122Y-3.9132
X6.9122Y-4.0132
X6.9122Y-4.1132
X6.9122Y-4.2132
X6.9122Y-4.3132
X6.9122Y-4.4132
X6.9122Y-4.5132
X6.9122Y-4.6132
X6.9122Y-4.7132
X6.9122Y-4.8132
X7.0622Y-3.0132
X7.0622Y-3.1132
X7.0622Y-3.2132
X7.0622Y-3.3132
X7.0622Y-3.6132
X7.0622Y-3.7132
X7.0622Y-3.8132
X7.0622Y-3.9132
X7.0622Y-4.2132
X7.0622Y-4.3132
X7.0622Y-4.4132
X7.0622Y-4.5132
X7.1722Y-2.9132
X7.1722Y-3.4132
X7.1722Y-3.5132
X7.1722Y-4.0132
X7.1722Y-4.1132
X7.1722Y-4.6132
X7.2722Y-2.9132
X7.2722Y-3.0132
X7.2722Y-3.1132
X7.2722Y-3.4132
X7.2722Y-3.5132
X7.2722Y-4.0132
X7.2722Y-4.1132
X7.2722Y-4.6132
X7.3222Y-3.6632
X7.3222Y-3.7632
X7.3222Y-4.2632
X7.3222Y-4.3632
X7.3722Y-2.9132
X7.3722Y-3.0132
X7.3722Y-3.1132
X7.3722Y-3.4132
X7.3722Y-3.5132
X7.3722Y-4.0132
X7.3722Y-4.1132
X7.3722Y-4.6132
X7.4222Y-3.6632
X7.4222Y-3.7632
X7.4222Y-4.2632
X7.4222Y-4.3632
X7.4722Y-2.9132
X7.4722Y-3.0132
X7.4722Y-3.1132
X7.4722Y-3.4132
X7.4722Y-3.5132
X7.4722Y-4.0132
X7.4722Y-4.1132
X7.4722Y-4.6132
X7.5222Y-3.6632
X7.5222Y-3.7632
X7.5222Y-4.2632
X7.5222Y-4.3632
X7.5722Y-2.9132
X7.5722Y-3.4132
X7.5722Y-3.5132
X7.5722Y-4.0132
X7.5722Y-4.1132
X7.5722Y-4.6132
X7.6722Y-2.9132
X7.6722Y-3.4132
X7.6722Y-3.5132
X7.6722Y-4.0132
X7.6722Y-4.1132
X7.6722Y-4.6132
X7.7722Y-2.9132
X7.7722Y-3.4132
X7.7722Y-3.5132
X7.7722Y-4.0132
X7.7722Y-4.1132
X7.7722Y-4.6132
X7.8722Y-2.9132
X7.8722Y-3.4132
X7.8722Y-3.5132
X7.8722Y-4.0132
X7.8722Y-4.1132
X7.8722Y-4.6132
X8.0522Y-2.9132
X8.0522Y-3.0132
X8.0522Y-3.1132
X8.0522Y-3.2132
X8.0522Y-3.3132
X8.0522Y-3.4132
X8.0522Y-3.5132
X8.0522Y-3.6132
X8.0522Y-3.7132
X8.0522Y-3.8132
X8.0522Y-3.9132
X8.0522Y-4.0132
X8.0522Y-4.1132
X8.0522Y-4.2132
X8.0522Y-4.3132
X8.0522Y-4.4132
X8.0522Y-4.5132
X8.0522Y-4.6132
X8.0522Y-4.7132
X8.0522Y-4.8132
X8.1522Y-2.9132
X8.1522Y-3.0132
X8.1522Y-3.1132
X8.1522Y-3.2132
X8.1522Y-3.3132
X8.1522Y-3.4132
X8.1522Y-3.5132
X8.1522Y-3.6132
X8.1522Y-3.7132
X8.1522Y-3.8132
X8.1522Y-3.9132
X8.1522Y-4.0132
X8.1522Y-4.1132
X8.1522Y-4.2132
X8.1522Y-4.3132
X8.1522Y-4.4132
X8.1522Y-4.5132
X8.1522Y-4.6132
X8.1522Y-4.7132
X8.1522Y-4.8132
X8.3022Y-3.0132
X8.3022Y-3.1132
X8.3022Y-3.2132
X8.3022Y-3.3132
X8.3022Y-3.6132
X8.3022Y-3.7132
X8.3022Y-3.8132
X8.3022Y-3.9132
X8.3022Y-4.2132
X8.3022Y-4.3132
X8.3022Y-4.4132
X8.3022Y-4.5132
X8.4122Y-2.9132
X8.4122Y-3.4132
X8.4122Y-3.5132
X8.4122Y-4.0132
X8.4122Y-4.1132
X8.4122Y-4.6132
X8.5122Y-2.9132
X8.5122Y-3.0132
X8.5122Y-3.1132
X8.5122Y-3.4132
X8.5122Y-3.5132
X8.5122Y-4.0132
X8.5122Y-4.1132
X8.5122Y-4.6132
X8.5622Y-3.6632
X8.5622Y-3.7632
X8.5622Y-4.2632
X8.5622Y-4.3632
X8.6122Y-2.9132
X8.6122Y-3.0132
X8.6122Y-3.1132
X8.6122Y-3.4132
X8.6122Y-3.5132
X8.6122Y-4.0132
X8.6122Y-4.1132
X8.6122Y-4.6132
X8.6622Y-3.6632
X8.6622Y-3.7632
X8.6622Y-4.2632
X8.6622Y-4.3632
X8.7122Y-2.9132
X8.7122Y-3.0132
X8.7122Y-3.1132
X8.7122Y-3.4132
X8.7122Y-3.5132
X8.7122Y-4.0132
X8.7122Y-4.1132
X8.7122Y-4.6132
X8.7622Y-3.6632
X8.7622Y-3.7632
X8.7622Y-4.2632
X8.7622Y-4.3632
X8.8122Y-2.9132
X8.8122Y-3.4132
X8.8122Y-3.5132
X8.8122Y-4.0132
X8.8122Y-4.1132
X8.8122Y-4.6132
X8.9122Y-2.9132
X8.9122Y-3.4132
X8.9122Y-3.5132
X8.9122Y-4.0132
X8.9122Y-4.1132
X8.9122Y-4.6132
X9.0122Y-2.9132
X9.0122Y-3.4132
X9.0122Y-3.5132
X9.0122Y-4.0132
X9.0122Y-4.1132
X9.0122Y-4.6132
X9.1122Y-2.9132
X9.1122Y-3.4132
X9.1122Y-3.5132
X9.1122Y-4.0132
X9.1122Y-4.1132
X9.1122Y-4.6132
X9.2922Y-2.9132
X9.2922Y-3.0132
X9.2922Y-3.1132
X9.2922Y-3.2132
X9.2922Y-3.3132
X9.2922Y-3.4132
X9.2922Y-3.5132
X9.2922Y-3.6132
X9.2922Y-3.7132
X9.2922Y-3.8132
X9.2922Y-3.9132
X9.2922Y-4.0132
X9.2922Y-4.1132
X9.2922Y-4.2132
X9.2922Y-4.3132
X9.2922Y-4.4132
X9.2922Y-4.5132
X9.2922Y-4.6132
X9.2922Y-4.7132
X9.2922Y-4.8132
X9.3922Y-2.9132
X9.3922Y-3.0132
X9.3922Y-3.1132
X9.3922Y-3.2132
X9.3922Y-3.3132
X9.3922Y-3.4132
X9.3922Y-3.5132
X9.3922Y-3.6132
X9.3922Y-3.7132
X9.3922Y-3.8132
X9.3922Y-3.9132
X9.3922Y-4.0132
X9.3922Y-4.1132
X9.3922Y-4.2132
X9.3922Y-4.3132
X9.3922Y-4.4132
X9.3922Y-4.5132
X9.3922Y-4.6132
X9.3922Y-4.7132
X9.3922Y-4.8132
T0
M30
